<svg xmlns="http://www.w3.org/2000/svg" xmlns:xlink="http://www.w3.org/1999/xlink" width="400" height="400" viewBox="0 0 400 400">
  <defs>
    <clipPath id="clip-path">
      <rect id="Rectangle_16794" data-name="Rectangle 16794" width="152.233" height="152.195" fill="none"/>
    </clipPath>
    <clipPath id="clip-DO_IT">
      <rect width="400" height="400"/>
    </clipPath>
  </defs>
  <g id="DO_IT" clip-path="url(#clip-DO_IT)">
    <path id="Path_1968" data-name="Path 1968" d="M212.886,244.167c-21.49-1.248-43.5-.325-63.16-9.715C120.18,220.339,103.6,199.667,98.1,174.218c-12.381-57.27,8.637-107.78,58.837-150.728,35.839-30.662,107.156-32.576,146.641,1.8,29.092,25.327,34.385,54.78,30.767,85.513-3.38,28.724-12.068,57.111-27.933,83.662A116.293,116.293,0,0,1,286.34,219.53c-18.678,17.517-42.67,27.157-73.455,24.637" transform="translate(-14.99 77.718)" fill="#e67253"/>
    <g id="Group_8471" data-name="Group 8471" transform="translate(119.813 121.801)">
      <g id="Group_8456" data-name="Group 8456" clip-path="url(#clip-path)">
        <path id="Path_1952" data-name="Path 1952" d="M76.127,152.19q-29.455,0-58.91,0c-10.106,0-17.188-7.1-17.19-17.231Q.019,98.253,0,61.548a5.933,5.933,0,0,1,2.475-5.307c1.174-.844,2.135-2.018,3.371-2.736,2.984-1.736,3.727-4.212,3.518-7.545-.295-4.695-.1-9.422-.068-14.134.043-6.675,4.326-10.956,11.029-10.986,7.734-.036,15.468.028,23.2-.057a5.024,5.024,0,0,0,2.9-1.053C52.747,14.586,59.012,9.367,65.269,4.137a16.307,16.307,0,0,1,21.56-.129c6.336,5.228,12.623,10.517,19,15.691a5.31,5.31,0,0,0,3.061,1.084c7.551.09,15.1.039,22.657.051,7.16.011,11.405,4.219,11.43,11.337.02,5.619.035,11.238-.02,16.857a2.9,2.9,0,0,0,1.224,2.6c2.053,1.589,4,3.311,6.02,4.946a5.154,5.154,0,0,1,2.027,4.239c-.01,25.014.029,50.028-.028,75.042a16.375,16.375,0,0,1-16.62,16.324q-29.728.035-59.454.007m.073-122.4q-27.547,0-55.094,0c-2.625,0-2.882.26-2.883,2.912,0,10.572-.025,21.144.052,31.716A3.54,3.54,0,0,0,19.417,66.8q25.738,21.47,51.558,42.839c3.366,2.793,6.919,2.816,10.333-.014Q107.182,88.177,133,66.661a3.563,3.563,0,0,0,.989-2.457c.065-10.511.045-21.023.042-31.534,0-2.617-.267-2.879-2.918-2.879q-27.457,0-54.914,0m57.685,113.3L90.624,113.438c-9.719,9.861-19.469,9.69-29,.022L18.378,143.095ZM9.145,70c-.064.572-.112.8-.112,1.03q0,32.446.014,64.892a14.907,14.907,0,0,0,.424,2.4l44.911-30.779L9.145,70m133.84,68.445V70.118L97.9,107.536l45.089,30.906M92.367,20.75l.19-.355c-4.134-3.4-8.183-6.91-12.435-10.155-2.661-2.031-6.151-1.632-8.864.6-3.586,2.948-7.147,5.926-10.712,8.9a11.777,11.777,0,0,0-.93,1.012Z" transform="translate(0 0)" fill="#f6efec"/>
        <path id="Path_1953" data-name="Path 1953" d="M89.553,92.794q-15.863,0-31.725,0c-3.214,0-5.216-1.719-5.222-4.46s2.007-4.529,5.185-4.53q31.815-.008,63.631,0c3.157,0,5.163,1.816,5.13,4.582-.032,2.676-2.016,4.405-5.093,4.407q-15.953.008-31.906,0" transform="translate(-13.453 -21.43)" fill="#f6efec"/>
        <path id="Path_1954" data-name="Path 1954" d="M78.125,59.884q10.236,0,20.476,0c3.053,0,5.065,1.763,5.1,4.42.034,2.74-2,4.579-5.144,4.581q-20.384.015-40.769,0c-3.166,0-5.19-1.8-5.181-4.536s2.024-4.464,5.226-4.467q10.146-.009,20.294,0" transform="translate(-13.453 -15.314)" fill="#f6efec"/>
      </g>
    </g>
  </g>
</svg>
