<svg xmlns="http://www.w3.org/2000/svg" xmlns:xlink="http://www.w3.org/1999/xlink" width="400" height="400" viewBox="0 0 400 400">
  <defs>
    <clipPath id="clip-path">
      <rect id="Rectangle_16793" data-name="Rectangle 16793" width="159.736" height="159.35" fill="none"/>
    </clipPath>
    <clipPath id="clip-MAKE_IT">
      <rect width="400" height="400"/>
    </clipPath>
  </defs>
  <g id="MAKE_IT" clip-path="url(#clip-MAKE_IT)">
    <path id="Path_1945" data-name="Path 1945" d="M402.15,244.167c-21.49-1.248-43.5-.325-63.16-9.715-29.545-14.113-46.121-34.785-51.624-60.234C274.984,116.948,296,66.438,346.2,23.49c35.839-30.662,107.156-32.576,146.641,1.8,29.092,25.327,34.385,54.78,30.766,85.513-3.38,28.724-12.068,57.111-27.933,83.662A116.289,116.289,0,0,1,475.6,219.53c-18.678,17.517-42.67,27.157-73.455,24.637" transform="translate(-203.52 78.019)" fill="#153d77"/>
    <g id="Group_8455" data-name="Group 8455" transform="translate(114.866 120.626)">
      <g id="Group_8454" data-name="Group 8454" clip-path="url(#clip-path)">
        <path id="Path_1947" data-name="Path 1947" d="M55.694,0a9.055,9.055,0,0,1,5.457,4.632c.146.32.947.485,1.44.476A46.382,46.382,0,0,1,78.97,7.4c18.911,6.626,30.24,19.8,33.625,39.589a49.3,49.3,0,0,1,.517,9.771,13.465,13.465,0,0,0,2.754,8.992,12.588,12.588,0,0,1,1.792,11.887,20.744,20.744,0,0,1-2.694,4.955c-2.392,3.612-2.364,6.924-.024,10.571a22.51,22.51,0,0,1,2.958,5.908,10.6,10.6,0,0,1-3.323,11.1,4.233,4.233,0,0,0-1.438,3.451c.059,12.47.036,24.941.033,37.411,0,5.142-3.184,8.314-8.332,8.315q-25.111,0-50.222,0c-7.93,0-13.423-5.473-13.431-13.369,0-4.024,0-8.047,0-12.233H.065c-.225-3.614.068-6.937,2.04-9.931.5-.751,1.023-1.482,1.525-2.229a8.448,8.448,0,0,0-.034-9.847c-1.631-2.348-3.141-4.7-3.449-7.667a13.705,13.705,0,0,1,2.544-9.926,10.294,10.294,0,0,0,2.466-5.916,9.828,9.828,0,0,0-2.316-6.391A12.578,12.578,0,0,1,.264,71.407,26.916,26.916,0,0,1,2.52,65.669c.574-1.235,1.466-2.32,2.071-3.544a1.415,1.415,0,0,0-.45-1.3C1.053,58.955-.111,56.22.027,52.681c.585-14.961,6.179-27.7,17.041-37.988A52.5,52.5,0,0,1,48.783.258,5.6,5.6,0,0,0,49.717,0ZM26.035,82.308l-.446.152c.257,2.669.332,5.372.8,8,2.038,11.349,12.082,21,23.5,22.186,5.255.548,10.6.288,15.9.329a18.225,18.225,0,0,0,3.663-.4,28.172,28.172,0,0,0,22.869-24.22,46.135,46.135,0,0,0,.038-6.1A18.426,18.426,0,0,1,78.8,87.375C70.676,87.117,62.983,80.358,62,72.3c-.313-2.573-.218-5.2-.3-7.8a2.545,2.545,0,0,0-2.424-2.769,2.517,2.517,0,0,0-2.633,2.427c-.066.562-.013,1.137-.04,1.7a55.653,55.653,0,0,1-.4,7.215c-1.679,9.313-11.257,15.76-20.556,14.075a18.9,18.9,0,0,1-9.607-4.846M44.4,116.846c-.326-.119-.8-.3-1.287-.467A33.151,33.151,0,0,1,20.678,85.848c-.2-7.957-.055-15.924-.066-23.886,0-.544,0-1.088,0-1.6-3.451.409-6.682.771-9.9,1.207-.284.038-.57.526-.739.862-.864,1.721-1.43,3.661-2.581,5.154a9.283,9.283,0,0,0-.024,11.781,14.36,14.36,0,0,1,2.417,4.611A12.622,12.622,0,0,1,7.855,95.713c-3.45,4.509-3.546,8.555.019,13.173A11.734,11.734,0,0,1,9.8,112.8a13.337,13.337,0,0,1-1.925,11.763c-.815,1.169-1.542,2.4-2.445,3.813H40.954a36.31,36.31,0,0,1,.794-5.945,39.121,39.121,0,0,1,2.651-5.584M61.672,10.307A54.462,54.462,0,0,1,50.264,40.948a7.837,7.837,0,0,0,.868.116c9.718-.007,19.437.088,29.153-.065A12.569,12.569,0,0,0,92.547,28.4a7.648,7.648,0,0,0-15.288-.5c-.04.932-.006,1.868-.006,2.87H72.035c-.284-3.876.327-7.38,2.729-10.423s5.621-4.558,9.771-5.03a45.19,45.19,0,0,0-22.863-5.008M91,42.373c5,5.413,7.033,10.773,6.815,19.19-.157,6.018-.043,12.042-.027,18.063.013,4.491.13,8.988-1.2,13.716l8.831-6.594,2.658,1.848a14.05,14.05,0,0,1,3.1-9.664,10.727,10.727,0,0,0,1.686-3.392,7.745,7.745,0,0,0-1.42-7.118,15.343,15.343,0,0,1-3.436-11.115c.074-.989.019-1.99.009-2.986a44.238,44.238,0,0,0-4.235-18.962,42.162,42.162,0,0,0-6.18-9.518C98.3,32.639,95.978,38,91,42.373M31.443,50.279c7.21-3.623,16.2-12.672,18.858-18.954a49.817,49.817,0,0,0-29.614-10.64A50.426,50.426,0,0,0,31.443,50.279m22.488,79.494c-.251.231-.569.5-.864.8-2.146,2.141-4.307,4.268-6.409,6.452a2.077,2.077,0,0,0-.327,1.3c-.03,2.416-.017,4.831-.013,7.247.007,5.483,3.161,8.643,8.639,8.646q10.3.008,20.609,0c.462,0,.924-.039,1.456-.061V138.838c-3.773,0-7.458-.025-11.142.035a2.261,2.261,0,0,0-1.272.749c-1.2,1.176-2.348,2.406-3.346,3.44L57.174,139.2l3.39-2.746-6.633-6.677M71.68,117.421c2.243,1.515,4.221,2.794,6.139,4.159a9.95,9.95,0,0,1,4.367,7.33c.152,1.519.027,3.066.027,4.719,1.545,0,3.294.014,5.043,0a5.544,5.544,0,0,1,4.254,1.886,41.387,41.387,0,0,1,4.958-1.744c1.027-.226,1.288-.545,1.282-1.538-.041-6.495,0-12.99-.058-19.483a2.983,2.983,0,0,0-.826-1.944,12.451,12.451,0,0,1-4.256-8.215,34.742,34.742,0,0,1-8.907,9.424,34.06,34.06,0,0,1-12.023,5.41M38.663,56.6A12.821,12.821,0,1,0,51.437,69.485,12.793,12.793,0,0,0,38.663,56.6M92.545,69.372A12.8,12.8,0,1,0,79.73,82.241,12.76,12.76,0,0,0,92.545,69.372m-.106-12.805A17.215,17.215,0,0,0,86.6,45.549a1.865,1.865,0,0,0-1.278-.167,62.777,62.777,0,0,1-7.007.9c-10.481.1-20.964.042-31.446.05-.516,0-1.189-.118-1.521.151-1.924,1.557-3.768,3.212-5.754,4.934a18.45,18.45,0,0,1,13.839,7.646A8.086,8.086,0,0,1,59.3,56.547a8.316,8.316,0,0,1,5.657,2.514,18.056,18.056,0,0,1,13.1-7.57c5.462-.513,10.136,1.283,14.378,5.075M24.013,15.595A56.1,56.1,0,0,1,52.735,26.642,48.077,48.077,0,0,0,56.559,8.4c.032-2.342-.931-3.307-3.252-3.248A49.362,49.362,0,0,0,40.3,7.149a48.751,48.751,0,0,0-16.284,8.446M26.9,52.931A56.468,56.468,0,0,1,15.643,24c-.5.624-.773.94-1.017,1.279A47.814,47.814,0,0,0,5.271,53.474c-.014,2.191.931,3.149,3.145,3.007a58.891,58.891,0,0,0,7.9-.767c3.483-.7,6.889-1.79,10.59-2.783M92.652,154.207c4.391,0,8.6.043,12.811-.024a2.45,2.45,0,0,0,2.526-2.563c.072-3.412.077-6.828,0-10.24-.039-1.654-1.1-2.517-2.809-2.54a40.985,40.985,0,0,1-4.974-.045,6.862,6.862,0,0,0-6.963,3.053,2.4,2.4,0,0,0-.562,1.21c-.044,3.648-.025,7.3-.025,11.149m12.83-46.319c4.172,0,4.172,0,5.833-1.759a5.869,5.869,0,0,0-.7-9.042c-1.418-1.1-2.89-2.135-4.292-3.258a1.146,1.146,0,0,0-1.711-.03c-1.393,1.132-2.87,2.16-4.3,3.25-2.268,1.732-3.265,4.351-2.157,6.739a11.872,11.872,0,0,0,3.048,3.8c.567.49,1.787.238,2.713.294.518.031,1.041.005,1.561.005m-2.457,5.3v20.323l4.894.353V113.192Zm-36.01,20.423c2.9,0,5.684.029,8.466-.037.348-.008.8-.454,1-.81a5.376,5.376,0,0,0-1.635-6.947c-1.222-.892-2.507-1.7-3.767-2.535q-2.775-1.852-5.556-3.7c2.263,4.487,1.056,9.237,1.487,14.025m20.285,5.33H82.45V154.14H87.3Zm-29.135-13.25,3.673,3.791q-.247-3.307-.5-6.608l-.46-.008-2.716,2.826m-10.928-2.788-.554.057c-.162,2.2-.323,4.394-.5,6.811l3.78-3.854c-.84-.928-1.783-1.971-2.725-3.014m9.9-4a7.561,7.561,0,0,0-6.1.033l2.979,3.093,3.121-3.126" transform="translate(0 0)" fill="#f6efec"/>
        <path id="Path_1948" data-name="Path 1948" d="M166.9,34.872c4.114,2.646,8.014,5.155,11.913,7.666.194.125.376.271.616.446q-2.789,9.87-5.558,19.667c-2.395,8.46-4.778,16.923-7.207,25.373a1.406,1.406,0,0,0,.756,1.918c2.115,1.258,4.184,2.6,6.207,4a2.445,2.445,0,0,1,.927,1.55q1.593,14.329,3.079,28.67c.9,8.619,1.767,17.24,2.662,25.859.508,4.894,1.045,9.786,1.579,14.77H165.608q-.671-6.48-1.343-12.955c-.456-4.331-.926-8.66-1.428-13.35-.237.643-.39.984-.491,1.34-2.26,7.958-4.5,15.919-6.8,23.866-.131.456-.681,1.124-1.044,1.129-4.926.075-9.854.05-14.911.05,1.5-5.3,2.957-10.481,4.417-15.659,1.219-4.321,2.406-8.652,3.679-12.958a1.259,1.259,0,0,0-.661-1.716c-2.019-1.237-3.965-2.595-6-3.809-.87-.519-.955-1.039-.694-1.96q12.388-43.722,24.721-87.461c.588-2.082,1.189-4.16,1.841-6.441m-17.426,94.92c.132-.417.257-.775.359-1.138q7.527-26.6,15.049-53.208,4.087-14.461,8.139-28.934c.133-.475.2-1.274-.061-1.5a26.075,26.075,0,0,0-2.937-1.934c-.141.378-.219.548-.268.726q-11.4,40.323-22.787,80.649c-1,3.538-.984,3.542,2.263,5.317a.949.949,0,0,0,.242.02m15.372-35.184-18.412,65.142a25.549,25.549,0,0,1,3.175.025c1.358.182,1.862-.385,2.216-1.648q7.964-28.458,16.013-56.894c.382-1.356,1.307-2.994.867-4.025-.482-1.128-2.257-1.7-3.471-2.517a2.21,2.21,0,0,0-.389-.082m6.1,15.808-.273-.024c-1.075,3.808-2.039,7.654-3.269,11.412a14.846,14.846,0,0,0-.44,6.417c.857,7.911,1.671,15.826,2.51,23.738.272,2.573.569,5.144.852,7.7h5.785c-1.73-16.485-3.448-32.863-5.166-49.242" transform="translate(-22.139 -5.53)" fill="#f6efec"/>
        <path id="Path_1949" data-name="Path 1949" d="M55.29,110.6l4.737-1.6c1.429,3.586,3.886,5.875,7.864,5.887S74.4,112.717,75.824,109l4.717,1.562c-.982,5.154-6.387,9.324-12.226,9.518A13.094,13.094,0,0,1,55.29,110.6" transform="translate(-8.769 -17.286)" fill="#f6efec"/>
        <path id="Path_1950" data-name="Path 1950" d="M52.037,83.538H47c0-.761.021-1.5,0-2.237a2.573,2.573,0,1,0-5.125-.035c-.023.706,0,1.413,0,2.226H36.836c-.441-3.341,0-6.416,2.9-8.6a7.323,7.323,0,0,1,8.4-.629c3.623,1.978,4.366,5.327,3.9,9.277" transform="translate(-5.819 -11.614)" fill="#f6efec"/>
        <path id="Path_1951" data-name="Path 1951" d="M100.986,83.536H95.8c0-.878.039-1.719-.008-2.555a2.486,2.486,0,0,0-4.973-.037c-.048.84-.008,1.684-.008,2.593H85.727A8.438,8.438,0,0,1,89,74.6a7.8,7.8,0,0,1,8.459-.09c3.26,2.154,3.914,5.343,3.531,9.022" transform="translate(-13.561 -11.627)" fill="#f6efec"/>
      </g>
    </g>
  </g>
</svg>
