<svg xmlns="http://www.w3.org/2000/svg" xmlns:xlink="http://www.w3.org/1999/xlink" width="400" height="400" viewBox="0 0 400 400">
  <defs>
    <clipPath id="clip-PATTERN_6">
      <rect width="400" height="400"/>
    </clipPath>
  </defs>
  <g id="PATTERN_6" clip-path="url(#clip-PATTERN_6)">
    <path id="Path_1969" data-name="Path 1969" d="M249.616,48.98c-11.992,13.236-27.494,21.507-47.39,25.295-8.645,1.649-18.687,1.391-30.684-.769-7.088-1.258-10.68,1.447-15.983,7.974l7.458,26.769c6.286,22.587,12.436,44.67,18.594,66.563,3.631,12.894,14.153,17.233,22.339,18.6,43.985,7.39,78.237-5.766,104.661-40.229,16.624-21.68,37.323-32.657,61.563-32.657q1.614,0,3.244.063c.356.017.715.024,1.071.024,5.3,0,10.822-1.668,16.175-3.285l.5-.149c8.418-2.546,12.3-8.68,10.133-16.009-7.45-25.225-16.379-54.915-26.13-83.926C371.479,6.286,363,0,352.156,0c-.959,0-1.939.045-2.932.145A201.3,201.3,0,0,0,312.879,6.8c-22.915,6.681-43.608,20.481-63.263,42.182M354.1,25.431l.784.066.063.208,21.109,70.74-1.471.066c-21.722.985-39.036,5.905-54.487,15.478-12.621,7.829-22.117,18.105-30.5,28.052-18.177,21.552-38.83,32.03-63.142,32.03a96.971,96.971,0,0,1-21.072-2.458l-.66-.145-.19-.657L184.383,99.685l1.4-.115c22.677-1.794,46.4-5.643,66.273-21.537,7.064-5.652,13.675-12.1,20.071-18.329l2.221-2.165c24.9-24.2,50.249-34.371,79.745-32.108" transform="translate(-95.11 188.057) rotate(-17)" fill="#153d77"/>
  </g>
</svg>
