<svg xmlns="http://www.w3.org/2000/svg" xmlns:xlink="http://www.w3.org/1999/xlink" width="400" height="400" viewBox="0 0 400 400">
  <defs>
    <clipPath id="clip-path">
      <rect id="Rectangle_13" data-name="Rectangle 13" width="245.39" height="213.76" fill="#f2c655"/>
    </clipPath>
    <clipPath id="clip-PATTERN_3">
      <rect width="400" height="400"/>
    </clipPath>
  </defs>
  <g id="PATTERN_3" clip-path="url(#clip-PATTERN_3)">
    <g id="Group_1" data-name="Group 1" transform="matrix(0.996, -0.087, 0.087, 0.996, 68.457, 104.22)" clip-path="url(#clip-path)">
      <path id="Path_1" data-name="Path 1" d="M118.3,197.729c1.037-1.161,2.113-2.361,3.206-3.488l.564-.6q14.352-14.944,28.7-29.894c16.905-17.621,34.385-35.839,51.617-53.719,4.136-4.294,8.447-8.588,12.87-12.972,8.041-7.979,16.291-16.167,23.7-24.794,5.675-6.61,7.726-14.071,5.629-20.478-2.1-6.424-8.188-11.259-16.7-13.248h-.006C206.152,33.45,183.8,29.308,162.193,25.3l-.344-.056-10.03-1.865c-29.86-5.573-60.25-11.1-89.637-16.426l-.135-.023Q42.994,3.468,23.937,0C12.379.158,5.471,2.265,2.275,6.638c-3.049,4.181-3.032,10.819.039,20.878.276.89.547,1.8.817,2.7l.158.535A76.776,76.776,0,0,0,7.4,42.466c6.024,12.583,12.245,25.341,18.089,37.327l.406.828c7.359,15.119,14.978,30.745,22.287,46.185,2.818,5.951,5.889,12.076,8.6,17.486,8.272,16.522,16.832,33.613,21.92,51.442,3.043,10.594,6.379,16.009,10.808,17.542,4.626,1.629,11.067-.806,20.917-7.895a51.218,51.218,0,0,0,7.872-7.652m-13.118-31.962-1.493,1.595-.27-.552-59.45-123,3.561-6.649,1.076.2L199.773,65.006l-1.64,1.972c-19.244,23.273-40.206,44.6-60.481,65.22l-.1.113c-10.628,10.8-21.61,21.965-32.368,33.455" transform="translate(0.001 -0.001)" fill="#f2c655"/>
    </g>
  </g>
</svg>
