<svg xmlns="http://www.w3.org/2000/svg" xmlns:xlink="http://www.w3.org/1999/xlink" width="400" height="400" viewBox="0 0 400 400">
  <defs>
    <clipPath id="clip-PATTERN_10">
      <rect width="400" height="400"/>
    </clipPath>
  </defs>
  <g id="PATTERN_10" clip-path="url(#clip-PATTERN_10)">
    <path id="Path_29" data-name="Path 29" d="M710.193,46.2c-11.216,12.376-25.711,20.112-44.316,23.654-8.086,1.541-17.475,1.3-28.694-.719-6.63-1.176-9.989,1.351-14.948,7.457l6.975,25.031c5.88,21.121,11.631,41.774,17.39,62.247,3.393,12.057,13.234,16.116,20.888,17.4,41.132,6.913,73.162-5.39,97.872-37.618,15.545-20.275,34.9-30.539,57.571-30.539,1.007,0,2.015.02,3.032.059.335.015.668.023,1,.023,4.95,0,10.12-1.562,15.126-3.071l.465-.14c7.872-2.38,11.5-8.115,9.474-14.97-6.966-23.587-15.315-51.353-24.433-78.482C824.149,6.274,816.215.394,806.079.394c-.9,0-1.812.044-2.742.137a188.237,188.237,0,0,0-33.986,6.22C747.923,13,728.573,25.9,710.193,46.2" transform="translate(907.099 -28.48) rotate(155)" fill="#e67253"/>
  </g>
</svg>
