<svg xmlns="http://www.w3.org/2000/svg" xmlns:xlink="http://www.w3.org/1999/xlink" width="400" height="400" viewBox="0 0 400 400">
  <defs>
    <clipPath id="clip-PATTERN_1">
      <rect width="400" height="400"/>
    </clipPath>
  </defs>
  <g id="PATTERN_1" clip-path="url(#clip-PATTERN_1)">
    <path id="Path_33" data-name="Path 33" d="M555.772,0a41.235,41.235,0,0,0-5.285.356c-22.7,2.938-44.9,5.92-69.486,9.23l-4.238.569c-24.093,3.23-49,6.573-73.492,9.719-12.2,1.565-18.738,6.758-22.558,17.937C375.372,53.428,369.08,69,363,84.047l-.232.562c-3.073,7.576-5.835,14.414-8.559,21.387q-3.05,7.783-6.114,15.566c-6.376,16.227-13.608,34.62-20.193,52.5-2.607,7.07-1.841,14.645,2.055,20.256,2.82,4.064,6.9,6.416,11.188,6.468l10.417-1.448c7.824-1.085,14.882-2.066,21.957-3.027l32.362-4.39c29.949-4.071,60.92-8.274,91.38-12.258,10.79-1.408,18.281-4.43,22.277-15.13,10.242-27.419,21.275-56.05,30.139-79.058l2.279-5.915C558.435,62.7,565.145,45.279,571.645,28.1c3.556-9.382,3.364-17.267-.536-22.2C568.054,2.038,562.75,0,555.772,0M532.635,37.839c-.642,2.476-1.171,4.687-1.694,6.929a74.8,74.8,0,0,1-2.973,10.485c-5.088,12.86-10.349,25.89-15.444,38.49l-.438,1.087c-5.161,12.793-10.5,26.025-15.658,39.071-3.427,8.667-7.44,16.552-18.726,17.78-16.669,1.829-32.912,3.687-50.9,5.746-12.516,1.441-27.342,3.134-42.369,4.8a39.373,39.373,0,0,1-4.6.22c-1.047,0-2.179-.023-3.467-.044l-.63-.012c-2.279-.052-4.751-.1-7.8-.1h-2.307l.867-2.132q5.229-12.952,10.2-25.334l.445-1.108c10.136-25.208,19.71-49.022,29.677-72.632,2.026-4.8,7.587-10.6,12.331-11.268,27.735-3.889,55.286-7.175,84.457-10.649l.471-.056q13.265-1.567,26.876-3.212l2.263-.276Z" transform="matrix(0.259, 0.966, -0.966, 0.259, 180.433, -260.917)" fill="#153d77"/>
  </g>
</svg>
