<svg xmlns="http://www.w3.org/2000/svg" xmlns:xlink="http://www.w3.org/1999/xlink" width="400" height="400" viewBox="0 0 400 400">
  <defs>
    <clipPath id="clip-PATTERN_9">
      <rect width="400" height="400"/>
    </clipPath>
  </defs>
  <g id="PATTERN_9" clip-path="url(#clip-PATTERN_9)">
    <path id="Path_1964" data-name="Path 1964" d="M206.221,171.536c.9-1.007,1.83-2.048,2.778-3.029l.491-.514q12.449-12.965,24.9-25.937c14.665-15.284,29.833-31.091,44.782-46.6,3.586-3.73,7.328-7.453,11.165-11.257,6.975-6.92,14.132-14.025,20.557-21.51,4.92-5.735,6.7-12.208,4.882-17.765-1.822-5.574-7.1-9.767-14.492-11.492h0c-18.848-4.415-38.234-8.01-56.983-11.487L244,21.9l-8.7-1.619c-25.908-4.835-52.269-9.622-77.763-14.248l-.118-.019q-16.53-3-33.061-6.01c-10.025.137-16.018,1.969-18.791,5.759-2.645,3.628-2.631,9.385.033,18.113.242.773.474,1.557.709,2.344l.137.462a67.156,67.156,0,0,0,3.567,10.162c5.228,10.918,10.622,21.986,15.694,32.383l.351.72c6.387,13.113,12.994,26.669,19.334,40.066,2.446,5.162,5.11,10.475,7.461,15.168,7.179,14.336,14.6,29.162,19.019,44.626,2.635,9.193,5.531,13.89,9.373,15.22,4.017,1.41,9.6-.7,18.147-6.849a44.6,44.6,0,0,0,6.833-6.638M193.542,145.19l-.232-.479" transform="translate(-10.031 107.278)" fill="#db7db1"/>
  </g>
</svg>
