<svg xmlns="http://www.w3.org/2000/svg" xmlns:xlink="http://www.w3.org/1999/xlink" width="400" height="400" viewBox="0 0 400 400">
  <defs>
    <clipPath id="clip-PATTERN_2">
      <rect width="400" height="400"/>
    </clipPath>
  </defs>
  <g id="PATTERN_2" clip-path="url(#clip-PATTERN_2)">
    <path id="Path_32" data-name="Path 32" d="M416.57,0a34.8,34.8,0,0,0-4.464.3c-19.175,2.483-37.927,5-58.7,7.8l-3.58.479c-20.355,2.729-41.392,5.555-62.083,8.212-10.308,1.322-15.829,5.709-19.057,15.152C264.174,45.134,258.859,58.286,253.718,71l-.194.477c-2.6,6.4-4.931,12.176-7.231,18.067q-2.576,6.575-5.165,13.15c-5.386,13.708-11.5,29.246-17.058,44.351a18.676,18.676,0,0,0,1.735,17.111,11.818,11.818,0,0,0,9.451,5.464l8.8-1.223c6.609-.918,12.572-1.745,18.548-2.559l27.338-3.708c25.3-3.437,51.463-6.987,77.194-10.355,9.115-1.187,15.443-3.74,18.819-12.78,8.652-23.163,17.97-47.349,25.46-66.785l1.925-5c5.476-14.238,11.143-28.959,16.634-43.47,3.006-7.925,2.844-14.586-.451-18.756C426.945,1.722,422.465,0,416.57,0" transform="translate(-127.45 115.191)" fill="#db7db1"/>
  </g>
</svg>
