<svg xmlns="http://www.w3.org/2000/svg" xmlns:xlink="http://www.w3.org/1999/xlink" width="400" height="400" viewBox="0 0 400 400">
  <defs>
    <clipPath id="clip-PATTERN_7">
      <rect width="400" height="400"/>
    </clipPath>
  </defs>
  <g id="PATTERN_7" clip-path="url(#clip-PATTERN_7)">
    <path id="Path_36" data-name="Path 36" d="M284.141,195.9c-17.242-1-34.9-.261-50.675-7.795-23.7-11.323-37-27.906-41.419-48.327-9.934-45.949,6.93-86.472,47.206-120.932,28.754-24.6,85.973-26.136,117.653,1.442,23.341,20.32,27.588,43.953,24.685,68.609a167.848,167.848,0,0,1-22.411,67.124,93.317,93.317,0,0,1-16.1,20.114c-14.986,14.051-34.235,21.786-58.934,19.764m-63.169-77.781c.477,13.774,1.909,26.812,12.926,38.2,22.9,23.669,78.457,24.8,93.715-7.114,4.475-9.359,9.735-18.526,13.58-28.029,7.625-18.845,10.549-38.113,8.118-57.895-1.473-11.987-9.479-21.372-19.774-29.351-9.8-7.593-23.391-12.269-37.241-10.008-15.393,2.513-29.619,7.867-39.27,18.77C232.65,65.71,222.16,90.939,220.972,118.119" transform="translate(-85.829 101.891)" fill="#db7db1"/>
  </g>
</svg>
