<svg xmlns="http://www.w3.org/2000/svg" xmlns:xlink="http://www.w3.org/1999/xlink" width="400" height="400" viewBox="0 0 400 400">
  <defs>
    <clipPath id="clip-PATTERN_8">
      <rect width="400" height="400"/>
    </clipPath>
  </defs>
  <g id="PATTERN_8" clip-path="url(#clip-PATTERN_8)">
    <path id="Path_13" data-name="Path 13" d="M219.9,0a39.486,39.486,0,0,0-5.066.339c-21.759,2.818-43.038,5.677-66.61,8.85l-4.062.543c-23.1,3.1-46.97,6.3-70.45,9.319-11.7,1.5-17.962,6.478-21.625,17.194-5.12,14.971-11.151,29.9-16.985,44.321l-.22.541c-2.946,7.262-5.6,13.817-8.205,20.5q-2.924,7.461-5.861,14.922c-6.112,15.555-13.044,33.187-19.357,50.327-2.5,6.777-1.765,14.037,1.969,19.417,2.7,3.9,6.613,6.151,10.725,6.2l9.986-1.388c7.5-1.042,14.266-1.981,21.048-2.9l31.022-4.208c28.707-3.9,58.4-7.929,87.6-11.751,10.343-1.347,17.524-4.244,21.355-14.5,9.818-26.284,20.392-53.729,28.891-75.785l2.185-5.672c6.213-16.157,12.645-32.861,18.876-49.328,3.411-8.993,3.227-16.552-.512-21.283C231.677,1.954,226.593,0,219.9,0" transform="translate(257.306 58.279) rotate(73)" fill="#f2c655"/>
  </g>
</svg>
