<svg xmlns="http://www.w3.org/2000/svg" xmlns:xlink="http://www.w3.org/1999/xlink" width="400" height="400" viewBox="0 0 400 400">
  <defs>
    <clipPath id="clip-path">
      <rect id="Rectangle_16795" data-name="Rectangle 16795" width="157.351" height="157.471" fill="none"/>
    </clipPath>
    <clipPath id="clip-THINK_IT">
      <rect width="400" height="400"/>
    </clipPath>
  </defs>
  <g id="THINK_IT" clip-path="url(#clip-THINK_IT)">
    <path id="Path_1944" data-name="Path 1944" d="M118.254,244.167c-21.49-1.248-43.5-.325-63.16-9.715C25.548,220.339,8.972,199.667,3.47,174.218-8.912,116.948,12.107,66.438,62.307,23.49c35.839-30.662,107.156-32.576,146.641,1.8,29.092,25.327,34.385,54.78,30.767,85.513-3.38,28.724-12.068,57.111-27.933,83.662a116.292,116.292,0,0,1-20.072,25.067c-18.678,17.517-42.67,27.157-73.455,24.637" transform="translate(80.188 78.019)" fill="#f2c655"/>
    <g id="Group_8459" data-name="Group 8459" transform="translate(121.871 126.853)">
      <g id="Group_8458" data-name="Group 8458" clip-path="url(#clip-path)">
        <path id="Path_1955" data-name="Path 1955" d="M100.27,101.567c-5.577,0-11.162-.175-16.73.054-4.682.192-6.509-2.334-6.361-6.281.209-5.57.025-11.154.07-16.731A4.879,4.879,0,0,0,75.2,74.471c-11.358-9-16.839-20.79-16.342-35.254C59.489,20.855,73.8,4.3,91.868.816c22.872-4.4,44.227,9.385,48.971,32.175,3.35,16.1-1.751,29.7-14.181,40.419-2.28,1.966-3.453,3.9-3.327,6.956.214,5.178.06,10.372.058,15.559,0,3.983-1.682,5.64-5.717,5.642q-8.7,0-17.4,0m.054-57.158c2-2.041,3.766-3.891,5.582-5.692,2.175-2.157,4.874-2.3,6.835-.4s1.856,4.794-.291,6.976-4.382,4.3-6.474,6.54a3.751,3.751,0,0,0-.965,2.287c-.078,6.078-.045,12.159-.038,18.239,0,.476.066.952.1,1.481,3.066,0,5.966.04,8.862-.042a1.793,1.793,0,0,0,1.263-.926,15.928,15.928,0,0,1,4.777-5.912c9.544-7.655,13.758-17.6,12.182-29.76C129.809,19.028,112.275,6.323,94.38,9.942c-13.363,2.7-22.2,10.788-25.341,24.083-3.113,13.18,1.031,24.294,11.552,32.893a16.982,16.982,0,0,1,4.943,6c.174.377.649.867.994.875,2.992.069,5.986.04,8.963.04a3.832,3.832,0,0,0,.149-.654c.009-6.526.032-13.052-.024-19.578a2.809,2.809,0,0,0-.846-1.676c-2.129-2.207-4.331-4.345-6.492-6.522-2.2-2.22-2.4-5.028-.519-6.977,1.976-2.045,4.765-1.9,7.079.4,1.775,1.767,3.511,3.571,5.486,5.585m13.612,38.825h-27.3V92.18h27.3Z" transform="translate(-21.633 0)" fill="#f6efec"/>
        <path id="Path_1956" data-name="Path 1956" d="M33.21,202.029c0,1.56.04,3.175-.009,4.786a4.6,4.6,0,1,1-9.206.119c-.078-1.612-.015-3.231-.015-4.921a12.16,12.16,0,0,0-1.25-.483A22.233,22.233,0,0,1,12.3,195.493c-.713-.731-1.248-.9-2.121-.305a31.124,31.124,0,0,1-3.327,1.922,4.571,4.571,0,0,1-6.213-1.774,4.518,4.518,0,0,1,1.663-6.249c1.407-.89,2.871-1.687,4.382-2.568a23.771,23.771,0,0,1,.006-14.574c-1.395-.8-2.751-1.56-4.081-2.36C.055,168.046-.713,165.369.7,163.013c1.348-2.244,4.031-2.835,6.567-1.43,1.314.728,2.612,1.482,4.015,2.28.61-.573,1.2-1.151,1.813-1.7a22.232,22.232,0,0,1,9.441-5.156c1.139-.289,1.544-.775,1.454-1.937a24.4,24.4,0,0,1,.028-3.845,4.589,4.589,0,0,1,9.166.208c.069,1.667.013,3.34.013,5.081.768.241,1.448.46,2.131.667a21.733,21.733,0,0,1,9.372,5.6c.938.958,1.626,1.044,2.664.283a23.139,23.139,0,0,1,2.745-1.593,4.629,4.629,0,0,1,6.411,1.569,4.582,4.582,0,0,1-1.817,6.47c-1.325.814-2.69,1.565-4.158,2.416a24.571,24.571,0,0,1-.032,14.59c1.345.782,2.688,1.544,4.012,2.337,2.595,1.553,3.388,4.157,2.01,6.541-1.338,2.315-4.072,2.912-6.685,1.459-1.265-.7-2.571-2.029-3.776-1.94-1.168.086-2.178,1.7-3.352,2.5a36.029,36.029,0,0,1-4.564,2.755c-1.538.747-3.21,1.22-4.951,1.86m-4.535-8.983a13.821,13.821,0,1,0-13.9-13.789,13.918,13.918,0,0,0,13.9,13.789" transform="translate(0 -54.035)" fill="#f6efec"/>
        <path id="Path_1957" data-name="Path 1957" d="M191.618,202.542c0,1.12.052,2.682-.011,4.239A4.582,4.582,0,0,1,187,211.506c-2.662,0-4.545-1.978-4.6-4.882-.03-1.5-.005-3.008-.005-4.623-.475-.174-.917-.374-1.38-.5a22.173,22.173,0,0,1-10.278-5.97,1.486,1.486,0,0,0-2.258-.279,30.9,30.9,0,0,1-3.028,1.771,4.62,4.62,0,0,1-6.388-1.646,4.522,4.522,0,0,1,1.75-6.347c1.368-.849,2.773-1.638,4-2.358a66.289,66.289,0,0,1-.8-7.385,68.361,68.361,0,0,1,.792-7.506c-1.1-.636-2.447-1.395-3.773-2.191-2.578-1.549-3.357-4.187-1.956-6.555a4.418,4.418,0,0,1,6.515-1.421c2.783,1.993,4.746,2.042,7.415-.5,2.036-1.938,5.111-2.792,7.739-4.1a10.361,10.361,0,0,1,1.647-.494c0-1.7-.038-3.312.009-4.925a4.593,4.593,0,0,1,9.183-.209c.109,1.665-.5,3.749.3,4.893.78,1.121,3.042,1.1,4.455,1.915,2.769,1.609,5.4,3.456,8.4,5.407.948-.537,2.329-1.344,3.732-2.11a4.642,4.642,0,0,1,6.426,1.506,4.587,4.587,0,0,1-1.765,6.483c-1.366.845-2.775,1.621-4.214,2.456a24.163,24.163,0,0,1,.005,14.577c1.418.824,2.773,1.585,4.1,2.391,2.489,1.509,3.252,4.1,1.921,6.437a4.389,4.389,0,0,1-6.474,1.54c-2.848-2.09-4.794-2.019-7.554.487-2.457,2.231-5.919,3.357-9.3,5.165m9.2-23.348a13.818,13.818,0,1,0-13.837,13.854,13.9,13.9,0,0,0,13.837-13.854" transform="translate(-58.248 -54.036)" fill="#f6efec"/>
        <path id="Path_1958" data-name="Path 1958" d="M28.821,18.993a14.325,14.325,0,0,1-3.243-1.769C22.5,14.319,19.53,11.29,16.572,8.256a4.614,4.614,0,0,1-.092-6.722,4.562,4.562,0,0,1,6.593.141q4.612,4.492,9.106,9.106a4.345,4.345,0,0,1,1,5.078,5.3,5.3,0,0,1-4.361,3.135" transform="translate(-5.543 -0.071)" fill="#f6efec"/>
        <path id="Path_1959" data-name="Path 1959" d="M209.3,18.849a4.972,4.972,0,0,1-4.271-2.753,4.01,4.01,0,0,1,.488-4.84c3.257-3.441,6.6-6.809,10.054-10.051a4.4,4.4,0,0,1,6.186.449,4.577,4.577,0,0,1-.152,6.482c-2.988,3.085-6.059,6.089-9.1,9.125a1.952,1.952,0,0,1-.511.427c-.892.4-1.8.776-2.7,1.16" transform="translate(-75.183 -0.049)" fill="#f6efec"/>
        <path id="Path_1960" data-name="Path 1960" d="M217.746,106.155a9.564,9.564,0,0,1-2.609-1.416c-3.157-2.987-6.216-6.083-9.245-9.2a4.609,4.609,0,1,1,6.548-6.489c3.115,3.034,6.18,6.12,9.229,9.22a4.347,4.347,0,0,1,.95,5.082c-.778,1.8-2.236,2.71-4.873,2.805" transform="translate(-75.209 -32.225)" fill="#f6efec"/>
        <path id="Path_1961" data-name="Path 1961" d="M20.258,106.132c-2.423-.049-3.862-.882-4.7-2.585a4.157,4.157,0,0,1,.605-4.979q4.8-5.013,9.808-9.82a4.587,4.587,0,0,1,6.567,6.336c-3.235,3.458-6.622,6.777-10.045,10.051a6.239,6.239,0,0,1-2.238,1" transform="translate(-5.52 -32.218)" fill="#f6efec"/>
        <path id="Path_1962" data-name="Path 1962" d="M42.577,190.754a4.5,4.5,0,0,1,4.573,4.7,4.608,4.608,0,1,1-4.573-4.7" transform="translate(-13.951 -70.149)" fill="#f6efec"/>
        <path id="Path_1963" data-name="Path 1963" d="M196.363,195.35a4.6,4.6,0,0,1,9.209-.012,4.6,4.6,0,0,1-9.209.012" transform="translate(-72.212 -70.15)" fill="#f6efec"/>
      </g>
    </g>
  </g>
</svg>
